<?xml version="1.0" encoding="UTF-8"?>
<mxfile host="app.diagrams.net" modified="2024-04-23T00:53:49.105Z" agent="Mozilla/5.0 (Windows NT 10.0; Win64; x64) AppleWebKit/537.36 (KHTML, like Gecko) Chrome/121.0.0.0 Safari/537.36 OPR/107.0.0.0 (Edition std-1)" etag="UpB3UWKHwwPWVo4gRn2o" version="24.2.8" type="google">
  <diagram name="Página-1" id="O7lVHUYDuESDsfbX2SPw">
    <mxGraphModel dx="1393" dy="789" grid="1" gridSize="10" guides="1" tooltips="1" connect="1" arrows="1" fold="1" page="1" pageScale="1" pageWidth="827" pageHeight="1169" math="0" shadow="0">
      <root>
        <mxCell id="0" />
        <mxCell id="1" parent="0" />
        <mxCell id="BCYzAkmU45AGxinlZSN9-1" value="" style="whiteSpace=wrap;html=1;aspect=fixed;" parent="1" vertex="1">
          <mxGeometry x="30" y="30" width="360" height="360" as="geometry" />
        </mxCell>
        <mxCell id="BCYzAkmU45AGxinlZSN9-5" value="EU" style="shape=umlActor;verticalLabelPosition=bottom;verticalAlign=top;html=1;outlineConnect=0;" parent="1" vertex="1">
          <mxGeometry x="280" y="90" width="30" height="60" as="geometry" />
        </mxCell>
        <mxCell id="BCYzAkmU45AGxinlZSN9-9" value="&lt;h1 style=&quot;margin-top: 0px;&quot;&gt;Apresentação&lt;/h1&gt;&lt;p&gt;.&lt;/p&gt;" style="text;html=1;whiteSpace=wrap;overflow=hidden;rounded=0;" parent="1" vertex="1">
          <mxGeometry x="80" y="90" width="180" height="120" as="geometry" />
        </mxCell>
        <mxCell id="BCYzAkmU45AGxinlZSN9-10" value="Link&lt;div&gt;&lt;br&gt;&lt;/div&gt;" style="text;html=1;align=center;verticalAlign=middle;whiteSpace=wrap;rounded=0;" parent="1" vertex="1">
          <mxGeometry x="90" y="160" width="60" height="30" as="geometry" />
        </mxCell>
        <mxCell id="BCYzAkmU45AGxinlZSN9-11" value="&lt;h1 style=&quot;margin-top: 0px; font-size: 10px;&quot;&gt;&lt;font style=&quot;font-size: 10px;&quot;&gt;Heading&lt;/font&gt;&lt;/h1&gt;&lt;p style=&quot;font-size: 10px;&quot;&gt;&lt;font style=&quot;font-size: 10px;&quot;&gt;Lorem ipsum&lt;/font&gt;&lt;/p&gt;" style="text;html=1;whiteSpace=wrap;overflow=hidden;rounded=0;" parent="1" vertex="1">
          <mxGeometry x="90" y="270" width="160" height="90" as="geometry" />
        </mxCell>
        <mxCell id="BCYzAkmU45AGxinlZSN9-12" value="&lt;h1 style=&quot;margin-top: 0px; font-size: 10px;&quot;&gt;&lt;font style=&quot;font-size: 10px;&quot;&gt;Heading&lt;/font&gt;&lt;/h1&gt;&lt;p style=&quot;font-size: 10px;&quot;&gt;&lt;font style=&quot;font-size: 10px;&quot;&gt;Lorem ipsum&lt;/font&gt;&lt;/p&gt;" style="text;html=1;whiteSpace=wrap;overflow=hidden;rounded=0;" parent="1" vertex="1">
          <mxGeometry x="170" y="270" width="160" height="90" as="geometry" />
        </mxCell>
        <mxCell id="BCYzAkmU45AGxinlZSN9-13" value="&lt;h1 style=&quot;margin-top: 0px; font-size: 10px;&quot;&gt;&lt;font style=&quot;font-size: 10px;&quot;&gt;Heading&lt;/font&gt;&lt;/h1&gt;&lt;p style=&quot;font-size: 10px;&quot;&gt;&lt;font style=&quot;font-size: 10px;&quot;&gt;Lorem ipsum&lt;/font&gt;&lt;/p&gt;" style="text;html=1;whiteSpace=wrap;overflow=hidden;rounded=0;" parent="1" vertex="1">
          <mxGeometry x="250" y="270" width="160" height="90" as="geometry" />
        </mxCell>
        <mxCell id="BCYzAkmU45AGxinlZSN9-14" value="" style="endArrow=none;html=1;rounded=0;" parent="1" edge="1">
          <mxGeometry width="50" height="50" relative="1" as="geometry">
            <mxPoint x="50" y="370" as="sourcePoint" />
            <mxPoint x="50" y="50" as="targetPoint" />
          </mxGeometry>
        </mxCell>
        <mxCell id="BCYzAkmU45AGxinlZSN9-15" value="" style="rounded=0;whiteSpace=wrap;html=1;" parent="1" vertex="1">
          <mxGeometry x="60" y="40" width="40" height="30" as="geometry" />
        </mxCell>
        <mxCell id="BCYzAkmU45AGxinlZSN9-16" value="" style="rhombus;whiteSpace=wrap;html=1;" parent="1" vertex="1">
          <mxGeometry x="350" y="40" width="30" height="30" as="geometry" />
        </mxCell>
        <mxCell id="BCYzAkmU45AGxinlZSN9-28" value="" style="whiteSpace=wrap;html=1;aspect=fixed;" parent="1" vertex="1">
          <mxGeometry x="414" y="30" width="360" height="360" as="geometry" />
        </mxCell>
        <mxCell id="BCYzAkmU45AGxinlZSN9-35" value="" style="endArrow=none;html=1;rounded=0;" parent="1" edge="1">
          <mxGeometry width="50" height="50" relative="1" as="geometry">
            <mxPoint x="434" y="370" as="sourcePoint" />
            <mxPoint x="434" y="50" as="targetPoint" />
          </mxGeometry>
        </mxCell>
        <mxCell id="BCYzAkmU45AGxinlZSN9-36" value="" style="rounded=0;whiteSpace=wrap;html=1;" parent="1" vertex="1">
          <mxGeometry x="444" y="40" width="40" height="30" as="geometry" />
        </mxCell>
        <mxCell id="BCYzAkmU45AGxinlZSN9-37" value="" style="rhombus;whiteSpace=wrap;html=1;" parent="1" vertex="1">
          <mxGeometry x="734" y="40" width="30" height="30" as="geometry" />
        </mxCell>
        <mxCell id="BCYzAkmU45AGxinlZSN9-38" value="" style="ellipse;whiteSpace=wrap;html=1;aspect=fixed;" parent="1" vertex="1">
          <mxGeometry x="559" y="170" width="80" height="80" as="geometry" />
        </mxCell>
        <mxCell id="BCYzAkmU45AGxinlZSN9-39" value="" style="ellipse;whiteSpace=wrap;html=1;aspect=fixed;" parent="1" vertex="1">
          <mxGeometry x="480" y="185" width="60" height="60" as="geometry" />
        </mxCell>
        <mxCell id="BCYzAkmU45AGxinlZSN9-40" value="" style="ellipse;whiteSpace=wrap;html=1;aspect=fixed;" parent="1" vertex="1">
          <mxGeometry x="660" y="182.5" width="65" height="65" as="geometry" />
        </mxCell>
        <mxCell id="BCYzAkmU45AGxinlZSN9-42" value="" style="whiteSpace=wrap;html=1;aspect=fixed;" parent="1" vertex="1">
          <mxGeometry x="30" y="405" width="360" height="360" as="geometry" />
        </mxCell>
        <mxCell id="BCYzAkmU45AGxinlZSN9-43" value="" style="endArrow=none;html=1;rounded=0;" parent="1" edge="1">
          <mxGeometry width="50" height="50" relative="1" as="geometry">
            <mxPoint x="50" y="745" as="sourcePoint" />
            <mxPoint x="50" y="425" as="targetPoint" />
          </mxGeometry>
        </mxCell>
        <mxCell id="BCYzAkmU45AGxinlZSN9-44" value="" style="rounded=0;whiteSpace=wrap;html=1;" parent="1" vertex="1">
          <mxGeometry x="60" y="415" width="40" height="30" as="geometry" />
        </mxCell>
        <mxCell id="BCYzAkmU45AGxinlZSN9-45" value="" style="rhombus;whiteSpace=wrap;html=1;" parent="1" vertex="1">
          <mxGeometry x="350" y="415" width="30" height="30" as="geometry" />
        </mxCell>
        <mxCell id="BCYzAkmU45AGxinlZSN9-49" value="" style="shape=umlActor;verticalLabelPosition=bottom;verticalAlign=top;html=1;outlineConnect=0;" parent="1" vertex="1">
          <mxGeometry x="280" y="500" width="60" height="110" as="geometry" />
        </mxCell>
        <mxCell id="BCYzAkmU45AGxinlZSN9-51" value="&lt;h1 style=&quot;margin-top: 0px;&quot;&gt;Heading&lt;/h1&gt;&lt;p&gt;Lorem ipsum dolor sit amet, consectetur adipisicing elit, sed do eiusmod tempor incididunt ut labore et dolore magna aliqua.&lt;/p&gt;" style="text;html=1;whiteSpace=wrap;overflow=hidden;rounded=0;" parent="1" vertex="1">
          <mxGeometry x="80" y="490" width="200" height="170" as="geometry" />
        </mxCell>
        <mxCell id="BCYzAkmU45AGxinlZSN9-52" value="" style="shape=process;whiteSpace=wrap;html=1;backgroundOutline=1;" parent="1" vertex="1">
          <mxGeometry x="80" y="690" width="80" height="50" as="geometry" />
        </mxCell>
        <mxCell id="BCYzAkmU45AGxinlZSN9-53" value="" style="shape=process;whiteSpace=wrap;html=1;backgroundOutline=1;" parent="1" vertex="1">
          <mxGeometry x="170" y="690" width="80" height="50" as="geometry" />
        </mxCell>
        <mxCell id="BCYzAkmU45AGxinlZSN9-54" value="" style="shape=process;whiteSpace=wrap;html=1;backgroundOutline=1;" parent="1" vertex="1">
          <mxGeometry x="260" y="690" width="80" height="50" as="geometry" />
        </mxCell>
        <mxCell id="BCYzAkmU45AGxinlZSN9-55" value="" style="whiteSpace=wrap;html=1;aspect=fixed;" parent="1" vertex="1">
          <mxGeometry x="419" y="405" width="360" height="360" as="geometry" />
        </mxCell>
        <mxCell id="BCYzAkmU45AGxinlZSN9-56" value="" style="endArrow=none;html=1;rounded=0;" parent="1" edge="1">
          <mxGeometry width="50" height="50" relative="1" as="geometry">
            <mxPoint x="439" y="745" as="sourcePoint" />
            <mxPoint x="439" y="425" as="targetPoint" />
          </mxGeometry>
        </mxCell>
        <mxCell id="BCYzAkmU45AGxinlZSN9-57" value="" style="rounded=0;whiteSpace=wrap;html=1;" parent="1" vertex="1">
          <mxGeometry x="449" y="415" width="40" height="30" as="geometry" />
        </mxCell>
        <mxCell id="BCYzAkmU45AGxinlZSN9-58" value="" style="rhombus;whiteSpace=wrap;html=1;" parent="1" vertex="1">
          <mxGeometry x="739" y="415" width="30" height="30" as="geometry" />
        </mxCell>
        <mxCell id="BCYzAkmU45AGxinlZSN9-64" value="" style="shape=internalStorage;whiteSpace=wrap;html=1;backgroundOutline=1;" parent="1" vertex="1">
          <mxGeometry x="460" y="500" width="171" height="160" as="geometry" />
        </mxCell>
        <mxCell id="BCYzAkmU45AGxinlZSN9-66" value="" style="whiteSpace=wrap;html=1;aspect=fixed;" parent="1" vertex="1">
          <mxGeometry x="639" y="540" width="80" height="80" as="geometry" />
        </mxCell>
        <mxCell id="BCYzAkmU45AGxinlZSN9-67" value="" style="whiteSpace=wrap;html=1;aspect=fixed;" parent="1" vertex="1">
          <mxGeometry x="210" y="780" width="360" height="360" as="geometry" />
        </mxCell>
        <mxCell id="BCYzAkmU45AGxinlZSN9-68" value="" style="endArrow=none;html=1;rounded=0;" parent="1" edge="1">
          <mxGeometry width="50" height="50" relative="1" as="geometry">
            <mxPoint x="230" y="1120" as="sourcePoint" />
            <mxPoint x="230" y="800" as="targetPoint" />
          </mxGeometry>
        </mxCell>
        <mxCell id="BCYzAkmU45AGxinlZSN9-69" value="" style="rounded=0;whiteSpace=wrap;html=1;" parent="1" vertex="1">
          <mxGeometry x="240" y="790" width="40" height="30" as="geometry" />
        </mxCell>
        <mxCell id="BCYzAkmU45AGxinlZSN9-70" value="" style="rhombus;whiteSpace=wrap;html=1;" parent="1" vertex="1">
          <mxGeometry x="530" y="790" width="30" height="30" as="geometry" />
        </mxCell>
        <mxCell id="BCYzAkmU45AGxinlZSN9-77" value="Text" style="text;html=1;align=center;verticalAlign=middle;whiteSpace=wrap;rounded=0;" parent="1" vertex="1">
          <mxGeometry x="280" y="900" width="60" height="30" as="geometry" />
        </mxCell>
        <mxCell id="BCYzAkmU45AGxinlZSN9-78" value="Text" style="text;html=1;align=center;verticalAlign=middle;whiteSpace=wrap;rounded=0;" parent="1" vertex="1">
          <mxGeometry x="370" y="900" width="60" height="30" as="geometry" />
        </mxCell>
        <mxCell id="BCYzAkmU45AGxinlZSN9-79" value="Text" style="text;html=1;align=center;verticalAlign=middle;whiteSpace=wrap;rounded=0;" parent="1" vertex="1">
          <mxGeometry x="460" y="900" width="60" height="30" as="geometry" />
        </mxCell>
        <mxCell id="BCYzAkmU45AGxinlZSN9-80" value="Text" style="text;html=1;align=center;verticalAlign=middle;whiteSpace=wrap;rounded=0;" parent="1" vertex="1">
          <mxGeometry x="320" y="950" width="60" height="30" as="geometry" />
        </mxCell>
        <mxCell id="BCYzAkmU45AGxinlZSN9-81" value="Text" style="text;html=1;align=center;verticalAlign=middle;whiteSpace=wrap;rounded=0;" parent="1" vertex="1">
          <mxGeometry x="429" y="950" width="60" height="30" as="geometry" />
        </mxCell>
        <mxCell id="BCYzAkmU45AGxinlZSN9-82" value="Text" style="text;html=1;align=center;verticalAlign=middle;whiteSpace=wrap;rounded=0;" parent="1" vertex="1">
          <mxGeometry x="370" y="990" width="60" height="30" as="geometry" />
        </mxCell>
      </root>
    </mxGraphModel>
  </diagram>
</mxfile>
